<svg xmlns="http://www.w3.org/2000/svg" xmlns:xlink="http://www.w3.org/1999/xlink" width="233.09" height="127.919" viewBox="0 0 233.09 127.919"><defs><style>.a{stroke:rgba(0,0,0,0);stroke-miterlimit:10;fill:url(#a);}.b{fill:url(#b);}.c{fill:#1d308f;}.d{fill:url(#c);}.e{fill:#58dffc;}</style><linearGradient id="a" y1="0.398" x2="0.928" y2="0.416" gradientUnits="objectBoundingBox"><stop offset="0" stop-color="#f0f1f3"/><stop offset="1" stop-color="#f0f1f3" stop-opacity="0"/></linearGradient><linearGradient id="b" x1="0.5" x2="0.5" y2="1" gradientUnits="objectBoundingBox"><stop offset="0" stop-color="#6ae7fd"/><stop offset="1" stop-color="#0dc3ef"/></linearGradient><linearGradient id="c" y1="0.5" x2="1" y2="0.5" gradientUnits="objectBoundingBox"><stop offset="0" stop-color="#1ea2e6"/><stop offset="1" stop-color="#58dffc"/></linearGradient></defs><g transform="translate(0 0.5)"><g transform="translate(56.193)"><ellipse class="a" cx="46.776" cy="46.674" rx="46.776" ry="46.674"/><path class="b" d="M18.308,80.124,17,73.7a2.793,2.793,0,1,1-1.53-5.372L64.647,55.177A2.793,2.793,0,1,1,66.1,60.572L22.405,72.254l1.377,6.767a1.266,1.266,0,0,0,1.542.9L79.839,65.347a1.255,1.255,0,0,0,.886-1.534L63.6,12.79c-.3-.727-.61-1.509-1.655-1.229l-9.4,2.513,1.756,6.541a2.8,2.8,0,0,1-5.407,1.445l-1.756-6.539L28.683,20.452l1.756,6.54a2.8,2.8,0,0,1-5.407,1.446L23.277,21.9l-9.405,2.513a1.276,1.276,0,0,0-.856,1.7l3.1,15.213a2.792,2.792,0,0,1,.294,5.458l-5.476,1.464a2.793,2.793,0,1,1-1.448-5.395l1.179-.316L7.577,27.391c-.7-4,1.214-7.4,4.846-8.374l9.623-2.573A15.149,15.149,0,0,1,50.868,8.738l9.624-2.573c3.658-.978,6.9.7,8.4,4.851l17.191,51.2a6.84,6.84,0,0,1-4.792,8.53L26.772,85.317a6.4,6.4,0,0,1-1.654.213C21.949,85.53,18.726,83.312,18.308,80.124ZM34.663,5.907a9.577,9.577,0,0,0-7.075,9.056L45.33,10.219a9.617,9.617,0,0,0-8.218-4.635A9.466,9.466,0,0,0,34.663,5.907ZM.1,75.327a2.791,2.791,0,0,1,1.979-3.42L6.232,70.8A2.793,2.793,0,1,1,7.681,76.19L3.523,77.3A2.8,2.8,0,0,1,.1,75.327Zm9.56-17a2.793,2.793,0,0,1,1.979-3.42l41.12-10.994A2.793,2.793,0,1,1,54.2,49.308L13.084,60.3a2.8,2.8,0,0,1-3.428-1.974ZM20.934,42.676a2.792,2.792,0,0,1,1.979-3.42l16.81-4.495a2.793,2.793,0,1,1,1.448,5.395L24.361,44.65a2.8,2.8,0,0,1-3.427-1.974Z" transform="translate(25.937 3.909)"/></g><g transform="translate(0 105.665)"><path class="c" d="M112.92,317.517a9.4,9.4,0,0,1,3.54-3.588,9.769,9.769,0,0,1,4.977-1.295,10.119,10.119,0,0,1,5.613,1.548,8.877,8.877,0,0,1,3.5,4.39h-3.074a6.166,6.166,0,0,0-2.354-2.73,6.83,6.83,0,0,0-3.681-.957,7.181,7.181,0,0,0-3.694.957,6.693,6.693,0,0,0-2.567,2.716,9.531,9.531,0,0,0,0,8.218,6.693,6.693,0,0,0,2.567,2.716,7.181,7.181,0,0,0,3.694.957,6.91,6.91,0,0,0,3.681-.943,6.078,6.078,0,0,0,2.354-2.716h3.074a8.808,8.808,0,0,1-3.5,4.348,10.182,10.182,0,0,1-5.613,1.534,9.854,9.854,0,0,1-4.977-1.281,9.323,9.323,0,0,1-3.54-3.56,10.9,10.9,0,0,1,0-10.314Z" transform="translate(-111.622 -311.002)"/><path class="c" d="M140.433,311.527v20.826h-2.567V311.527Z" transform="translate(-115.133 -310.852)"/><path class="c" d="M145.727,321.242a6.943,6.943,0,0,1,2.637-2.772,7.242,7.242,0,0,1,3.737-.985,6.873,6.873,0,0,1,3.526.873,5.828,5.828,0,0,1,2.228,2.2v-2.815h2.6v15.423h-2.6V330.29a6.043,6.043,0,0,1-2.27,2.238,6.8,6.8,0,0,1-3.512.887,7.021,7.021,0,0,1-3.723-1.013,7.107,7.107,0,0,1-2.623-2.843,8.836,8.836,0,0,1-.959-4.165A8.651,8.651,0,0,1,145.727,321.242Zm11.423,1.14a4.989,4.989,0,0,0-1.9-1.984,5.412,5.412,0,0,0-5.26-.014,4.9,4.9,0,0,0-1.89,1.97,6.258,6.258,0,0,0-.705,3.04,6.4,6.4,0,0,0,.705,3.081,4.981,4.981,0,0,0,1.89,2,5.113,5.113,0,0,0,2.622.69,5.194,5.194,0,0,0,2.638-.69,4.96,4.96,0,0,0,1.9-2,6.345,6.345,0,0,0,.705-3.054A6.264,6.264,0,0,0,157.15,322.382Z" transform="translate(-116.056 -311.66)"/><path class="c" d="M170.039,332.809a5.359,5.359,0,0,1-2.228-1.688,4.481,4.481,0,0,1-.9-2.491h2.651a2.594,2.594,0,0,0,1.086,1.886,4.141,4.141,0,0,0,2.553.732,3.724,3.724,0,0,0,2.313-.647,1.977,1.977,0,0,0,.845-1.633,1.609,1.609,0,0,0-.9-1.506,12.658,12.658,0,0,0-2.792-.971,20.46,20.46,0,0,1-2.806-.914,4.983,4.983,0,0,1-1.862-1.379,3.592,3.592,0,0,1-.775-2.406,3.641,3.641,0,0,1,.705-2.167,4.778,4.778,0,0,1,2-1.562,7.218,7.218,0,0,1,2.962-.577,6.336,6.336,0,0,1,4.146,1.295,4.668,4.668,0,0,1,1.693,3.546h-2.567a2.645,2.645,0,0,0-.973-1.942,3.635,3.635,0,0,0-2.383-.731,3.688,3.688,0,0,0-2.2.59,1.825,1.825,0,0,0-.818,1.548,1.693,1.693,0,0,0,.494,1.252,3.6,3.6,0,0,0,1.24.788,21.341,21.341,0,0,0,2.073.661,22.211,22.211,0,0,1,2.708.887,4.739,4.739,0,0,1,1.791,1.309,3.5,3.5,0,0,1,.775,2.279,3.9,3.9,0,0,1-.705,2.28,4.706,4.706,0,0,1-1.988,1.59,7.123,7.123,0,0,1-2.948.577A8,8,0,0,1,170.039,332.809Z" transform="translate(-119.019 -311.66)"/><path class="c" d="M184.9,313.826a1.745,1.745,0,0,1,1.241-2.983,1.615,1.615,0,0,1,1.2.507,1.8,1.8,0,0,1,0,2.476,1.612,1.612,0,0,1-1.2.507A1.689,1.689,0,0,1,184.9,313.826Zm2.483,3.011V332.26h-2.567V316.837Z" transform="translate(-121.358 -310.759)"/><path class="c" d="M198.945,318.936H195.7v13.312h-2.567V318.936h-2v-2.112h2v-1.1a4.832,4.832,0,0,1,1.34-3.786,6.365,6.365,0,0,1,4.3-1.2v2.138a3.416,3.416,0,0,0-2.383.661,2.917,2.917,0,0,0-.691,2.182v1.1h3.243Z" transform="translate(-122.259 -310.746)"/><path class="c" d="M203.623,313.826a1.745,1.745,0,0,1,1.241-2.983,1.615,1.615,0,0,1,1.2.507,1.8,1.8,0,0,1,0,2.476,1.612,1.612,0,0,1-1.2.507A1.689,1.689,0,0,1,203.623,313.826Zm2.482,3.011V332.26h-2.566V316.837Z" transform="translate(-123.862 -310.759)"/><path class="c" d="M211.465,321.242a6.89,6.89,0,0,1,2.665-2.772,8.477,8.477,0,0,1,8.6.394,6.512,6.512,0,0,1,2.439,3.827h-2.763a3.968,3.968,0,0,0-1.538-2.223,4.754,4.754,0,0,0-2.834-.816,4.554,4.554,0,0,0-3.554,1.5,6.163,6.163,0,0,0-1.354,4.264,6.259,6.259,0,0,0,1.354,4.306,4.532,4.532,0,0,0,3.554,1.52,4.808,4.808,0,0,0,2.82-.788,4,4,0,0,0,1.551-2.252h2.763a6.782,6.782,0,0,1-2.482,3.786,7.444,7.444,0,0,1-4.653,1.421,7.668,7.668,0,0,1-3.907-.985,6.861,6.861,0,0,1-2.665-2.786,8.855,8.855,0,0,1-.959-4.222A8.713,8.713,0,0,1,211.465,321.242Z" transform="translate(-124.851 -311.66)"/><path class="c" d="M231.229,321.242a6.943,6.943,0,0,1,2.637-2.772,7.242,7.242,0,0,1,3.737-.985,6.873,6.873,0,0,1,3.526.873,5.828,5.828,0,0,1,2.228,2.2v-2.815h2.6v15.423h-2.6V330.29a6.049,6.049,0,0,1-2.27,2.238,6.8,6.8,0,0,1-3.512.887,7.021,7.021,0,0,1-3.723-1.013,7.107,7.107,0,0,1-2.623-2.843,8.836,8.836,0,0,1-.959-4.165A8.651,8.651,0,0,1,231.229,321.242Zm11.423,1.14a4.989,4.989,0,0,0-1.9-1.984,5.413,5.413,0,0,0-5.261-.014,4.906,4.906,0,0,0-1.889,1.97,6.258,6.258,0,0,0-.705,3.04,6.4,6.4,0,0,0,.705,3.081,4.985,4.985,0,0,0,1.889,2,5.118,5.118,0,0,0,2.623.69,5.2,5.2,0,0,0,2.638-.69,4.96,4.96,0,0,0,1.9-2,6.345,6.345,0,0,0,.705-3.054A6.264,6.264,0,0,0,242.652,322.382Z" transform="translate(-127.495 -311.66)"/><path class="c" d="M253.24,320.434a6.943,6.943,0,0,1,2.637-2.772,7.294,7.294,0,0,1,3.765-.985,7.008,7.008,0,0,1,3.356.831,6,6,0,0,1,2.37,2.181v-8.161h2.594v20.826h-2.594v-2.9a6.008,6.008,0,0,1-2.257,2.265,6.73,6.73,0,0,1-3.5.887,7.031,7.031,0,0,1-6.374-3.856,8.826,8.826,0,0,1-.96-4.165A8.642,8.642,0,0,1,253.24,320.434Zm11.423,1.14a4.986,4.986,0,0,0-1.9-1.984,5.412,5.412,0,0,0-5.26-.014,4.907,4.907,0,0,0-1.889,1.97,6.258,6.258,0,0,0-.705,3.04,6.4,6.4,0,0,0,.705,3.081,4.985,4.985,0,0,0,1.889,2,5.118,5.118,0,0,0,2.623.69,5.191,5.191,0,0,0,2.637-.69,4.956,4.956,0,0,0,1.9-2,6.345,6.345,0,0,0,.705-3.054A6.264,6.264,0,0,0,264.663,321.574Z" transform="translate(-130.44 -310.852)"/><path class="c" d="M278.056,332.429a7.007,7.007,0,0,1-2.764-2.8,8.565,8.565,0,0,1-1-4.208,8.326,8.326,0,0,1,1.029-4.179,7.087,7.087,0,0,1,2.807-2.786,8.625,8.625,0,0,1,7.954,0,7.1,7.1,0,0,1,2.807,2.772,8.308,8.308,0,0,1,1.03,4.193,8.2,8.2,0,0,1-1.058,4.208,7.322,7.322,0,0,1-2.863,2.8,8.22,8.22,0,0,1-4.005.985A7.921,7.921,0,0,1,278.056,332.429Zm6.53-1.914a4.926,4.926,0,0,0,1.959-1.942,6.2,6.2,0,0,0,.748-3.152,6.308,6.308,0,0,0-.734-3.151,4.8,4.8,0,0,0-1.918-1.927,5.544,5.544,0,0,0-5.147,0,4.639,4.639,0,0,0-1.876,1.927,6.507,6.507,0,0,0-.705,3.151,6.683,6.683,0,0,0,.691,3.181,4.578,4.578,0,0,0,1.848,1.927,5.2,5.2,0,0,0,2.538.634A5.424,5.424,0,0,0,284.586,330.516Z" transform="translate(-133.385 -311.66)"/><path class="c" d="M298.391,332.809a5.362,5.362,0,0,1-2.229-1.688,4.487,4.487,0,0,1-.9-2.491h2.651A2.594,2.594,0,0,0,299,330.516a4.138,4.138,0,0,0,2.552.732,3.719,3.719,0,0,0,2.313-.647,1.977,1.977,0,0,0,.846-1.633,1.609,1.609,0,0,0-.9-1.506,12.675,12.675,0,0,0-2.792-.971,20.556,20.556,0,0,1-2.807-.914,4.98,4.98,0,0,1-1.861-1.379,3.592,3.592,0,0,1-.775-2.406,3.646,3.646,0,0,1,.7-2.167,4.786,4.786,0,0,1,2-1.562,7.215,7.215,0,0,1,2.962-.577,6.337,6.337,0,0,1,4.146,1.295,4.666,4.666,0,0,1,1.691,3.546h-2.566a2.648,2.648,0,0,0-.973-1.942,3.637,3.637,0,0,0-2.383-.731,3.685,3.685,0,0,0-2.2.59,1.824,1.824,0,0,0-.818,1.548,1.693,1.693,0,0,0,.493,1.252,3.607,3.607,0,0,0,1.24.788,21.447,21.447,0,0,0,2.074.661,22.315,22.315,0,0,1,2.708.887,4.736,4.736,0,0,1,1.79,1.309,3.492,3.492,0,0,1,.775,2.279,3.9,3.9,0,0,1-.705,2.28,4.7,4.7,0,0,1-1.987,1.59,7.129,7.129,0,0,1-2.948.577A8,8,0,0,1,298.391,332.809Z" transform="translate(-136.19 -311.66)"/></g><g transform="translate(171.403 105.88)"><path class="d" d="M320.985,310.995,309.5,332.281h5.439l1.945-3.761h7.962l.607,3.761h5.5L327,310.995Zm-2.067,13.584,4.072-7.884,1.246,7.884Z" transform="translate(-309.498 -310.995)"/><path class="e" d="M354.2,312.465a7.531,7.531,0,0,0-5.045-1.47h-8.417l-3.768,21.286h5.2l1.368-7.642h3.221a10.272,10.272,0,0,0,4.543-.94,8.1,8.1,0,0,0,3.053-2.472,7.775,7.775,0,0,0,1.429-3.38,7.571,7.571,0,0,0,.12-1.4A5,5,0,0,0,354.2,312.465Zm-3.707,5.382a3.1,3.1,0,0,1-3.434,2.729h-2.8l.942-5.457h2.826a2.883,2.883,0,0,1,1.9.53,1.867,1.867,0,0,1,.623,1.5A6.328,6.328,0,0,1,350.488,317.847Z" transform="translate(-313.173 -310.995)"/><path class="e" d="M376.087,312.465a7.532,7.532,0,0,0-5.045-1.47h-8.417l-3.769,21.286h5.2l1.369-7.642h3.22a10.267,10.267,0,0,0,4.543-.94,8.093,8.093,0,0,0,3.054-2.472,7.763,7.763,0,0,0,1.428-3.38,7.492,7.492,0,0,0,.121-1.4A5,5,0,0,0,376.087,312.465Zm-3.707,5.382a3.1,3.1,0,0,1-3.434,2.729h-2.8l.942-5.457h2.826a2.881,2.881,0,0,1,1.9.53,1.865,1.865,0,0,1,.624,1.5A6.328,6.328,0,0,1,372.379,317.847Z" transform="translate(-316.101 -310.995)"/></g></g></svg>